<svg xmlns="http://www.w3.org/2000/svg" width="23.658" height="20.793" viewBox="0 0 23.658 20.793">
  <g id="Group_104" data-name="Group 104" transform="translate(-1363 -53)">
    <g id="Group_103" data-name="Group 103">
      <g id="Group_102" data-name="Group 102">
        <g id="supermarket" transform="translate(1363 53)" opacity="0.5">
          <path id="Path_519" data-name="Path 519" d="M7.622,13.862h12.57a.693.693,0,0,0,.666-.5l2.772-9.7a.693.693,0,0,0-.666-.884H6.024l-.5-2.23A.693.693,0,0,0,4.852,0H.693a.693.693,0,1,0,0,1.386H4.3L6.8,12.647a2.079,2.079,0,0,0,.826,3.987H20.192a.693.693,0,1,0,0-1.386H7.624a.693.693,0,0,1,0-1.386Zm14.424-9.7-2.376,8.317H8.18L6.332,4.159Zm0,0" fill="#051441"/>
          <path id="Path_520" data-name="Path 520" d="M150,362.079A2.079,2.079,0,1,0,152.079,360,2.082,2.082,0,0,0,150,362.079Zm2.079-.693a.693.693,0,1,1-.693.693A.694.694,0,0,1,152.079,361.386Zm0,0" transform="translate(-143.069 -343.365)" fill="#051441"/>
          <path id="Path_521" data-name="Path 521" d="M362,362.079A2.079,2.079,0,1,0,364.079,360,2.082,2.082,0,0,0,362,362.079Zm2.079-.693a.693.693,0,1,1-.693.693A.694.694,0,0,1,364.079,361.386Zm0,0" transform="translate(-345.273 -343.365)" fill="#051441"/>
        </g>
      </g>
    </g>
  </g>
</svg>
