<svg xmlns="http://www.w3.org/2000/svg" width="45.87" height="38.627" viewBox="0 0 45.87 38.627">
  <g id="Group_91" data-name="Group 91" transform="translate(-784.057 -1666)">
    <path id="Path_526" data-name="Path 526" d="M44.071,106.414A2.414,2.414,0,0,0,41.657,104H34.414A2.414,2.414,0,0,0,32,106.414v16.9H44.071Z" transform="translate(752.057 1581.314)" fill="#97f5d1"/>
    <path id="Path_527" data-name="Path 527" d="M100.071,74.414A2.414,2.414,0,0,0,97.657,72H90.414A2.414,2.414,0,0,0,88,74.414V100.97h12.071Z" transform="translate(712.956 1603.657)" fill="#97f5d1"/>
    <path id="Path_528" data-name="Path 528" d="M156.071,42.414A2.414,2.414,0,0,0,153.657,40h-7.243A2.414,2.414,0,0,0,144,42.414V78.627h12.071Z" transform="translate(673.856 1626)" fill="#97f5d1"/>
  </g>
</svg>
