<svg xmlns="http://www.w3.org/2000/svg" width="37.952" height="39.589" viewBox="0 0 37.952 39.589">
  <g id="megaphone" transform="translate(-57.154 -29.585) rotate(-45)">
    <path id="Path_532" data-name="Path 532" d="M415.626,139.563l3-1.217a1.217,1.217,0,1,0-.915-2.256l-3,1.217a1.217,1.217,0,0,0,.915,2.256Z" transform="translate(-380.359 -55.133)" fill="#e3b9f9"/>
    <path id="Path_533" data-name="Path 533" d="M414.71,273.349l3,1.217a1.217,1.217,0,1,0,.915-2.256l-3-1.217a1.217,1.217,0,0,0-.915,2.256Z" transform="translate(-380.358 -179.181)" fill="#e3b9f9"/>
    <path id="Path_534" data-name="Path 534" d="M428.086,211h-4.869a1.217,1.217,0,1,0,0,2.434h4.869a1.217,1.217,0,1,0,0-2.434Z" transform="translate(-387.755 -124.05)" fill="#e3b9f9"/>
    <path id="Path_535" data-name="Path 535" d="M91,346v6.086a1.217,1.217,0,0,0,1.217,1.217h4.869a1.217,1.217,0,0,0,1.217-1.217v-3.652h1.217a1.217,1.217,0,1,0,0-2.434Z" transform="translate(-83.615 -248.094)" fill="#e3b9f9"/>
    <path id="Path_536" data-name="Path 536" d="M7.3,150.17H18.757c.269,0,.533.025.8.039V135.524c-.267.014-.531.039-.8.039H7.3a7.3,7.3,0,1,0,0,14.607Z" transform="translate(0 -54.696)" fill="#e3b9f9"/>
    <path id="Path_537" data-name="Path 537" d="M280.067,100.25a1.216,1.216,0,0,0,.751-1.124V77.216a1.217,1.217,0,0,0-2.078-.861A15.538,15.538,0,0,1,271,80.52v15.3a15.538,15.538,0,0,1,7.741,4.165A1.217,1.217,0,0,0,280.067,100.25Z" transform="translate(-249.008)" fill="#e3b9f9"/>
  </g>
</svg>
