<svg id="play-button_1_" xmlns="http://www.w3.org/2000/svg" width="31.369" height="31.369" viewBox="0 0 31.369 31.369">
  <g id="Group_83" data-name="Group 83">
    <g id="Group_82" data-name="Group 82">
      <path id="Path_517" data-name="Path 517" d="M15.684,0A15.684,15.684,0,1,0,31.369,15.684,15.7,15.7,0,0,0,15.684,0Zm0,30.062A14.377,14.377,0,1,1,30.062,15.684,14.394,14.394,0,0,1,15.684,30.062Z" fill="#8a8a8b"/>
      <path id="Path_518" data-name="Path 518" d="M202.156,155.317l-9.149-5.882a.653.653,0,0,0-1.007.549v11.763a.653.653,0,0,0,1.007.549l9.149-5.882a.653.653,0,0,0,0-1.1Zm-8.849,5.234v-9.369l7.287,4.684Z" transform="translate(-180.237 -140.182)" fill="#8a8a8b"/>
    </g>
  </g>
</svg>
